#N canvas 242 118 867 444 10;
#N canvas 0 0 450 300 (subpatch) 0;
#X array square 515 float 0 black black;
#X coords 0 1 514 -1 100 70 1;
#X restore 674 318 graph;
#X obj 66 411 soundfiler;
#N canvas 0 22 450 300 (subpatch) 0;
#X array triangle 515 float 0 black black;
#X coords 0 1 514 -1 100 70 1;
#X restore 557 318 graph;
#N canvas 0 22 450 300 (subpatch) 0;
#X array saw 515 float 0 black black;
#X coords 0 1 514 -1 100 70 1;
#X restore 443 318 graph;
#X msg 57 352 read -resize waveforms/square.wav square \, read -resize
waveforms/saw.wav saw \, read -resize waveforms/triangle.wav triangle
;
#X floatatom 319 49 5 0 0 0 - - -, f 5;
#X obj 211 92 tabosc4~ saw;
#X obj 211 141 *~;
#X floatatom 237 116 5 0 1 0 - - -, f 5;
#X obj 211 175 +~;
#X obj 210 206 +~;
#X obj 313 144 *~;
#X floatatom 339 119 5 0 1 0 - - -, f 5;
#X obj 416 142 *~;
#X floatatom 442 117 5 0 1 0 - - -, f 5;
#X obj 313 95 tabosc4~ square;
#X obj 416 93 tabosc4~ triangle;
#X obj 212 284 output~;
#X obj 211 245 *~;
#X obj 587 91 tgl 15 0 empty empty empty 17 7 0 10 -262144 -1 -1 0
1;
#X obj 587 111 sel 1 0;
#X obj 598 180 pack 1 0 0 0;
#X obj 702 182 pack 0 0;
#X msg 598 202 \$1 \$2 \, \$4 \$3 \$2;
#X obj 598 224 vline~;
#X floatatom 656 97 5 0 0 2 attack - -, f 5;
#X floatatom 710 95 5 0 0 2 decay - -, f 5;
#X floatatom 755 94 5 0 0 2 sustain - -, f 5;
#X floatatom 804 97 5 0 0 2 release - -, f 5;
#X connect 4 0 1 0;
#X connect 5 0 6 0;
#X connect 5 0 15 0;
#X connect 5 0 16 0;
#X connect 6 0 7 0;
#X connect 7 0 9 0;
#X connect 8 0 7 1;
#X connect 9 0 10 0;
#X connect 10 0 18 0;
#X connect 11 0 9 1;
#X connect 12 0 11 1;
#X connect 13 0 10 1;
#X connect 14 0 13 1;
#X connect 15 0 11 0;
#X connect 16 0 13 0;
#X connect 18 0 17 0;
#X connect 18 0 17 1;
#X connect 19 0 20 0;
#X connect 20 0 21 0;
#X connect 20 1 22 0;
#X connect 21 0 23 0;
#X connect 22 0 24 0;
#X connect 23 0 24 0;
#X connect 24 0 18 1;
#X connect 25 0 21 1;
#X connect 26 0 21 2;
#X connect 27 0 21 3;
#X connect 28 0 22 1;
