#N canvas 458 23 844 490 10;
#X obj 443 253 loadbang;
#X obj 443 345 soundfiler;
#N canvas 0 22 450 300 (subpatch) 0;
#X array kick 16514 float 0 black black;
#X coords 0 1 16513 -1 100 70 1;
#X restore 560 138 graph;
#N canvas 0 22 450 300 (subpatch) 0;
#X array snare 6276 float 0 black black;
#X coords 0 1 6275 -1 100 70 1;
#X restore 434 133 graph;
#N canvas 0 22 450 300 (subpatch) 0;
#X array hi-hat 6549 float 0 black black;
#X coords 0 1 6548 -1 100 70 1;
#X restore 557 45 graph;
#X msg 443 275 read -resize soundfiles/kick.wav kick \, read -resize
soundfiles/snare.wav snare \, read -resize soundfiles/hihat.wav hi-hat
\,;
#X obj 49 110 bng 15 250 50 0 empty empty empty 17 7 0 10 -262144 -1
-1;
#X obj 119 252 output~;
#X obj 55 174 tabplay~ snare;
#X obj 158 106 bng 15 250 50 0 empty empty empty 17 7 0 10 -262144
-1 -1;
#X obj 270 109 bng 15 250 50 0 empty empty empty 17 7 0 10 -262144
-1 -1;
#X obj 164 170 tabplay~ hi-hat;
#X obj 276 173 tabplay~ kick;
#X connect 0 0 5 0;
#X connect 5 0 1 0;
#X connect 6 0 8 0;
#X connect 8 0 7 0;
#X connect 8 0 7 1;
#X connect 9 0 11 0;
#X connect 10 0 12 0;
#X connect 11 0 7 0;
#X connect 11 0 7 1;
#X connect 12 0 7 0;
#X connect 12 0 7 1;
