#N canvas 301 102 844 478 10;
#X obj 100 66 bng 15 250 50 0 empty empty empty 17 7 0 10 -262144 -1
-1;
#N canvas 0 22 450 300 (subpatch) 0;
#X array distorted 1000 float 0 black black;
#X coords 0 1 999 -1 100 70 1;
#X restore 280 114 graph;
#X obj 149 44 osc~ 100;
#X obj 164 79 tabwrite~ source;
#N canvas 0 22 450 300 (subpatch) 0;
#X array source 1000 float 0 black black;
#X coords 0 1 999 -1 100 70 1;
#X restore 282 22 graph;
#X obj 111 172 tabwrite~ distorted;
#X obj 147 120 clip~ -0.5 0.5;
#X obj 573 353 loadbang;
#X msg 573 375 read -resize soundfiles/riff.wav riff;
#X obj 573 397 soundfiler;
#N canvas 0 22 450 300 (subpatch) 0;
#X array riff 110471 float 0 black black;
#X coords 0 1 110470 -1 100 70 1;
#X restore 662 413 graph;
#X obj 163 237 bng 15 250 50 0 empty empty empty 17 7 0 10 -262144
-1 -1;
#X obj 163 257 tabplay~ riff;
#X obj 163 292 +~;
#X obj 163 346 clip~ -0.7 0.7;
#X obj 163 390 output~;
#X obj 163 323 *~ 20;
#X floatatom 256 299 5 0 0 0 distortion - -, f 5;
#X obj 33 438 tabwrite~ distorted;
#X obj 504 47 bng 15 250 50 0 empty empty empty 17 7 0 10 -262144 -1
-1;
#X obj 504 67 tabplay~ riff;
#X obj 559 135 +~;
#X obj 559 168 hip~;
#X floatatom 604 142 5 0 0 0 - - -, f 5;
#X floatatom 609 194 5 0 0 0 - - -, f 5;
#X obj 558 207 lop~;
#X obj 559 250 bp~;
#X floatatom 647 221 5 0 0 0 - - -, f 5;
#X floatatom 603 217 5 0 0 0 - - -, f 5;
#X obj 559 285 output~;
#X connect 0 0 3 0;
#X connect 0 0 5 0;
#X connect 2 0 3 0;
#X connect 2 0 6 0;
#X connect 6 0 5 0;
#X connect 7 0 8 0;
#X connect 8 0 9 0;
#X connect 11 0 12 0;
#X connect 11 0 18 0;
#X connect 12 0 13 0;
#X connect 13 0 16 0;
#X connect 14 0 15 0;
#X connect 14 0 15 1;
#X connect 14 0 18 0;
#X connect 16 0 14 0;
#X connect 17 0 16 1;
#X connect 19 0 20 0;
#X connect 20 0 21 0;
#X connect 21 0 22 0;
#X connect 22 0 25 0;
#X connect 23 0 22 1;
#X connect 24 0 25 1;
#X connect 25 0 26 0;
#X connect 26 0 29 0;
#X connect 26 0 29 1;
#X connect 27 0 26 2;
#X connect 28 0 26 1;
