#N canvas 278 54 981 601 10;
#X obj 500 417 loadbang;
#X msg 500 439 read -resize soundfiles/guitar.wav sample1;
#X obj 500 461 soundfiler;
#N canvas 0 22 450 300 (subpatch) 0;
#X array sample1 44100 float 0 black black;
#X coords 0 1 44099 -1 100 70 1;
#X restore 351 413 graph;
#X obj 97 221 tabread~ sample1;
#X obj 106 290 output~;
#X floatatom 110 35 5 0 0 0 - - -, f 5;
#X obj 46 451 bng 15 250 50 0 empty empty empty 17 7 0 10 -262144 -1
-1;
#N canvas 0 22 450 300 (subpatch) 0;
#X array cos 600 float 0 black black;
#X coords 0 1 599 -1 100 70 1;
#X restore 159 493 graph;
#X obj 42 597 tabwrite~ cos;
#X obj 63 543 cos~;
#X obj 60 473 phasor~ 100;
#X obj 148 101 tabwrite~ phasor;
#N canvas 0 22 450 300 (subpatch) 0;
#X array phasor 44100 float 0 black black;
#X coords 0 1 44099 -1 300 70 1;
#X restore 313 50 graph;
#X obj 196 55 bng 15 250 50 0 empty empty empty 17 7 0 10 -262144 -1
-1;
#X obj 112 71 phasor~ 2;
#X obj 118 119 cos~;
#X obj 158 159 tabwrite~ phasor_cos;
#X obj 92 146 +~ 0.5;
#N canvas 0 22 450 300 (subpatch) 0;
#X array phasor_cos 44100 float 0 black black;
#X coords 0 1 44099 -1 300 70 1;
#X restore 312 160 graph;
#N canvas 0 22 450 300 (subpatch) 0;
#X array phasor_cos_shift 44100 float 0 black black;
#X coords 0 1 44099 -1 300 70 1;
#X restore 309 266 graph;
#X obj 134 192 tabwrite~ phasor_cos_shift;
#X obj 92 168 cos~;
#X obj 713 168 phasor~ 20;
#X obj 713 190 *~ 2205;
#X obj 708 250 +~;
#X connect 0 0 1 0;
#X connect 1 0 2 0;
#X connect 4 0 5 0;
#X connect 4 0 5 1;
#X connect 6 0 15 0;
#X connect 7 0 9 0;
#X connect 10 0 9 0;
#X connect 11 0 10 0;
#X connect 14 0 12 0;
#X connect 14 0 17 0;
#X connect 14 0 21 0;
#X connect 15 0 12 0;
#X connect 15 0 16 0;
#X connect 15 0 18 0;
#X connect 16 0 17 0;
#X connect 18 0 22 0;
#X connect 22 0 21 0;
#X connect 22 0 4 0;
#X connect 23 0 24 0;
#X connect 24 0 25 1;
