#N canvas 315 100 795 549 10;
#X floatatom 22 200 5 0 0 0 - - -, f 5;
#X obj 22 221 t f f;
#X obj 22 243 *;
#X floatatom 22 265 5 0 0 0 - - -, f 5;
#X obj 22 286 sqrt;
#X floatatom 22 308 5 0 0 0 - - -, f 5;
#X obj 557 202 clip;
#X floatatom 557 157 5 0 0 0 - - -, f 5;
#X floatatom 605 155 5 0 0 0 - - -, f 5;
#X floatatom 654 153 5 0 0 0 - - -, f 5;
#X floatatom 556 242 5 0 0 0 - - -, f 5;
#X obj 38 148 +;
#X floatatom 13 101 5 0 0 0 - - -, f 5;
#X floatatom 55 95 5 0 0 0 - - -, f 5;
#X floatatom 38 170 5 0 0 0 - - -, f 5;
#X floatatom 567 296 5 0 0 0 - - -, f 5;
#X obj 567 317 trigger f f;
#X obj 566 354 *;
#X obj 566 376 * 3.14;
#X floatatom 566 398 5 0 0 0 - - -, f 5;
#X obj 198 235 osc~ 440;
#X obj 198 275 *~;
#X obj 199 348 output~;
#X obj 290 216 bng 15 250 50 0 empty empty empty 17 7 0 10 -262144
-1 -1;
#X obj 290 240 delay 100;
#X msg 290 262 0 10;
#X obj 290 292 line~;
#X msg 360 263 0.5 10;
#X obj 290 147 tgl 15 0 empty empty empty 17 7 0 10 -262144 -1 -1 0
1;
#X obj 290 185 metro 1000;
#X msg 323 103 60000;
#X obj 348 138 /;
#X floatatom 326 37 5 0 0 0 BPM - -, f 5;
#X floatatom 348 160 5 0 0 0 - - -, f 5;
#X obj 326 58 t b f;
#X floatatom 380 106 5 0 0 0 - - -, f 5;
#X obj 445 322 bng 15 250 50 0 empty empty empty 17 7 0 10 -262144
-1 -1;
#X obj 445 353 f 0;
#X obj 445 395 + 1;
#X floatatom 445 417 5 0 0 0 counter - -, f 5;
#X obj 445 438 sel 4;
#X msg 505 470 0;
#X obj 196 135 sel 1;
#X obj 210 175 t b;
#X msg 152 184 880;
#X msg 210 197 440;
#X connect 0 0 1 0;
#X connect 1 0 2 0;
#X connect 1 1 2 1;
#X connect 2 0 3 0;
#X connect 3 0 4 0;
#X connect 4 0 5 0;
#X connect 6 0 10 0;
#X connect 7 0 6 0;
#X connect 8 0 6 1;
#X connect 9 0 6 2;
#X connect 11 0 14 0;
#X connect 12 0 11 0;
#X connect 13 0 11 1;
#X connect 15 0 16 0;
#X connect 16 0 17 0;
#X connect 16 1 17 1;
#X connect 17 0 18 0;
#X connect 18 0 19 0;
#X connect 20 0 21 0;
#X connect 21 0 22 0;
#X connect 21 0 22 1;
#X connect 23 0 24 0;
#X connect 23 0 27 0;
#X connect 23 0 36 0;
#X connect 24 0 25 0;
#X connect 25 0 26 0;
#X connect 26 0 21 1;
#X connect 27 0 26 0;
#X connect 28 0 29 0;
#X connect 29 0 23 0;
#X connect 30 0 31 0;
#X connect 31 0 33 0;
#X connect 32 0 34 0;
#X connect 33 0 29 1;
#X connect 34 0 30 0;
#X connect 34 1 35 0;
#X connect 35 0 31 1;
#X connect 36 0 37 0;
#X connect 37 0 38 0;
#X connect 38 0 39 0;
#X connect 39 0 40 0;
#X connect 39 0 42 0;
#X connect 40 0 41 0;
#X connect 40 1 37 1;
#X connect 41 0 37 1;
#X connect 42 0 44 0;
#X connect 42 1 43 0;
#X connect 43 0 45 0;
#X connect 44 0 20 0;
#X connect 45 0 20 0;
