#N canvas 795 192 450 300 10;
#N canvas 0 22 450 300 (subpatch) 0;
#X array sample_test 440 float 0 black black;
#X coords 0 1 439 -1 200 140 1;
#X restore 222 108 graph;
#X obj 71 174 tabwrite~ sample_test;
#X obj 75 123 phasor~ 440;
#X obj 12 104 metro 200;
#X obj 23 44 bng 15 250 50 0 empty empty empty 17 7 0 10 -262144 -1
-1;
#X connect 2 0 1 0;
#X connect 3 0 1 0;
#X connect 4 0 3 0;
